<?xml version="1.0" standalone="no"?>
<!DOCTYPE svg PUBLIC "-//W3C//DTD SVG 20010904//EN"
 "http://www.w3.org/TR/2001/REC-SVG-20010904/DTD/svg10.dtd">
<svg version="1.0" xmlns="http://www.w3.org/2000/svg"
 width="500.000000pt" height="500.000000pt" viewBox="0 0 500.000000 500.000000"
 preserveAspectRatio="xMidYMid meet">
<metadata>
Created by potrace 1.14, written by Peter Selinger 2001-2017
</metadata>
<g transform="translate(0.000000,500.000000) scale(0.100000,-0.100000)"
fill="#000000" stroke="none">
<path d="M2361 4120 l-604 -350 -41 23 c-40 22 -41 24 -48 86 -23 208 -219
369 -422 346 -173 -19 -313 -149 -346 -322 -32 -161 58 -341 206 -414 54 -27
81 -33 150 -37 50 -3 102 0 128 8 l44 12 553 -319 c304 -175 559 -319 565
-321 7 -2 112 54 233 123 200 115 222 125 243 114 13 -7 66 -40 119 -74 91
-60 96 -64 103 -105 16 -98 101 -206 201 -255 l55 -27 97 70 c54 39 159 115
233 169 l135 99 -1 60 c-1 76 -36 156 -98 222 -94 100 -214 136 -357 107 l-81
-16 -206 120 c-114 66 -212 121 -217 123 -6 2 -110 -55 -232 -125 l-222 -128
-185 107 c-158 92 -183 109 -168 119 27 19 750 435 765 441 8 3 263 -138 568
-314 305 -175 593 -340 641 -368 l88 -49 0 -42 0 -42 210 152 c115 84 208 156
207 160 -3 9 -1696 997 -1707 997 -3 -1 -277 -158 -609 -350z m-1024 -177 c25
-12 41 -29 55 -61 19 -42 19 -46 3 -89 -15 -38 -25 -49 -63 -66 -42 -18 -50
-19 -86 -6 -78 27 -108 113 -63 180 39 59 90 73 154 42z m2330 -885 c40 -37
55 -82 43 -128 -33 -121 -205 -122 -241 0 -6 21 -21 43 -33 49 -21 11 -21 11
1 5 18 -4 25 0 32 19 11 28 46 65 76 78 32 14 95 3 122 -23z"/>
<path d="M288 3696 c-110 -30 -204 -111 -256 -223 -23 -50 -27 -71 -27 -153 0
-88 3 -101 34 -164 43 -88 104 -149 189 -189 59 -28 77 -32 152 -32 47 1 101
4 120 9 33 7 55 -4 387 -197 194 -112 360 -210 368 -217 13 -11 15 -83 17
-517 l3 -505 160 -92 c88 -51 178 -102 201 -115 l41 -23 182 132 181 133 -112
66 c-62 37 -143 84 -180 106 l-68 39 0 263 c0 151 4 263 9 263 5 0 170 -93
368 -206 197 -114 368 -211 380 -216 18 -9 44 6 197 118 97 70 175 132 173
137 -2 8 -373 225 -1559 912 l-465 270 -6 65 c-12 119 -98 250 -201 302 -91
46 -196 59 -288 34z m170 -276 c69 -42 69 -156 0 -204 -50 -35 -145 -11 -173
44 -44 85 11 180 105 180 19 0 50 -9 68 -20z"/>
</g>
</svg>
